<svg id="Layer_1" enable-background="new 0 0 512 512" height="512" viewBox="0 0 512 512" width="512" xmlns="http://www.w3.org/2000/svg"><g><g clip-rule="evenodd" fill-rule="evenodd"><path d="m229.745 184.588c0 18.466 13.756 33.6 30.549 33.6s30.519-15.106 30.519-33.6v-11.248-35.19c-4.702 3.214-9.696 5.902-14.895 7.83-5.783 2.133-10.894 3.214-16.004 3.214-5.111 0-10.193-1.081-16.004-3.214-4.906-1.841-9.667-4.324-14.165-7.334v34.694z" fill="#ffddce"/><path d="m86.785 208.284c-39.807 14.287-24.62 60.247 7.477 53.205l17.436-3.857 13.6-31.877-20.434-23.958z" fill="#ffece4"/><path d="m424.835 261.489c32.097 7.041 47.283-38.918 7.477-53.205l-18.078-6.486-25.14 23.783 18.306 32.052z" fill="#ffece4"/><path d="m187.309 452.632 36.127 15.46 36.127-15.46 16.472-56.391-16.472-58.639-36.127-23.901-36.127 23.901z" fill="#808b95"/><path d="m259.563 452.632 34.835 22.221 37.39-22.221v-54.754-60.276l-32.655-23.901-39.57 23.901z" fill="#808b95"/><path d="m259.563 337.602h72.224v-54.929-34.097l75.612 9.057 6.834-55.835-62.266-24.397c-10.368-4.266-13.113-4.061-24.328-4.061h-36.828v11.249c0 18.495-13.726 33.6-30.519 33.6s-30.549-15.135-30.549-33.6v-11.249h-38.288c-8.908 0-12.441-.117-18.721 1.958-1.635.526-3.446 1.227-5.578 2.104l-62.295 24.397 6.834 55.835 75.612-9.057v34.097 54.929h72.256z" fill="#ccf49f"/><path d="m259.914 175.56c5.111 0 10.222-1.081 16.004-3.214 5.199-1.928 10.193-4.616 14.895-7.83 19.1-13.09 32.973-35.237 32.973-53.644v-29.86h-11.74c-24.883 0-30.052-30.649-60.455-30.649h-13.814c-23.277 0-1.635 35.324-28.417 35.324h-13.318v25.186c0 18.641 14.252 41.138 33.703 54.14 4.498 3.009 9.258 5.493 14.165 7.334 5.811 2.132 10.893 3.213 16.004 3.213z" fill="#ffece4"/><path d="m251.59 60.676c30.403 0 35.572 30.649 60.455 30.649h11.74v-30.357c0-46.894-75.495-70.269-99.152-39.59-30.841 2.717-28.592 43.827-28.592 49.232v20.715 4.675h13.318c26.781 0 5.14-35.324 28.417-35.324z" fill="#ffdb4e"/><path d="m298.231 502.272c18.458 0 33.557-15.106 33.557-33.571v-16.07h-72.224v16.07c0 18.466 15.099 33.571 33.557 33.571z" fill="#ffece4"/><path d="m220.895 502.272h5.082c18.458 0 33.586-15.106 33.586-33.571v-6.369-9.7h-72.254v16.07c0 18.465 15.129 33.57 33.586 33.57z" fill="#ffece4"/><path d="m290.813 164.516c19.1-13.09 32.973-35.237 32.973-53.644v-19.546h-11.74c-4.673 0-8.645-1.081-12.208-2.834v19.547c0 18.407-13.902 40.554-32.973 53.644-4.702 3.214-9.725 5.902-14.924 7.83-3.096 1.139-6.016 1.987-8.82 2.513.263.117.526.205.789.321 5.812 2.133 10.894 3.214 16.004 3.214 5.111 0 10.222-1.081 16.004-3.214 5.198-1.929 10.193-4.617 14.895-7.831z" fill="#ffddce"/><path d="m312.045 91.326h11.74v-10.314-20.044c0-33.688-38.931-55.221-69.654-53.322 23.861 6.866 45.706 25.273 45.706 50.488v20.043 10.314c3.563 1.754 7.535 2.835 12.208 2.835z" fill="#ffaf5d"/><path d="m229.745 182.485c8.557 5.727 19.772 10.548 30.169 10.548 10.689 0 22.196-5.084 30.899-11.044v-8.648-8.824c-8.703 5.99-20.21 11.044-30.899 11.044-5.111 0-10.193-1.081-16.004-3.214-4.994-1.87-9.725-4.353-14.165-7.334z" fill="#ffcbbe"/><path d="m231.234 337.602h28.329v115.03h-28.329z" fill="#566b74"/><path d="m303.458 337.602h28.329v115.03h-28.329z" fill="#566b74"/><path d="m225.977 502.272c18.458 0 33.586-15.106 33.586-33.571v-6.369-9.7h-28.329v9.7 6.369c0 14.375-9.17 26.734-21.962 31.497 3.621 1.344 7.535 2.074 11.624 2.074z" fill="#ffddce"/><path d="m298.231 502.272c18.458 0 33.557-15.106 33.557-33.571v-6.369-9.7h-28.329v9.7 6.369c0 14.375-9.17 26.734-21.962 31.497 3.621 1.344 7.535 2.074 11.624 2.074z" fill="#ffddce"/><path d="m65.991 249.364c3.592-6.516 10.222-12.359 20.56-16.04l18.078-6.486 3.154-1.256-2.921-23.783-18.078 6.486c-23.538 8.443-27.861 27.99-20.793 41.079z" fill="#ffddce"/><path d="m107.784 225.581 59.111-23.14c10.368-4.295 13.113-4.09 24.328-4.09h41.238c-1.723-4.207-2.716-8.853-2.716-13.762v-2.104-9.145h-38.288c-8.908 0-12.441-.117-18.721 1.958-1.635.526-3.446 1.227-5.578 2.104l-62.295 24.397z" fill="#b3e59f"/><path d="m327.407 198.35c11.215 0 13.931-.205 24.299 4.09l59.608 23.316 2.921-23.958-62.266-24.397c-10.368-4.266-13.113-4.061-24.328-4.061h-36.828v8.648 2.6c0 4.909-.964 9.554-2.687 13.762z" fill="#b3e59f"/><path d="m414 226.837 18.078 6.486c10.572 3.769 17.26 9.817 20.794 16.479 7.389-13.09 3.271-32.958-20.56-41.518l-18.078-6.486-2.921 23.958z" fill="#ffddce"/><path d="m33.924 361.472c13.201 0 23.89-10.694 23.89-23.871 0-13.206-10.689-23.9-23.89-23.9-13.172 0-23.861 10.694-23.861 23.9 0 13.178 10.689 23.871 23.861 23.871z" fill="#ccf49f"/><path d="m454.187 337.602c0 13.177 10.689 23.871 23.861 23.871 13.201 0 23.89-10.694 23.89-23.871 0-13.206-10.689-23.9-23.89-23.9-13.172-.001-23.861 10.693-23.861 23.9z" fill="#ccf49f"/></g><path d="m10.063 123.288c4.169 0 7.548-3.377 7.548-7.545v-87.477c0-4.604 3.754-8.35 8.369-8.35h87.411c4.169 0 7.548-3.377 7.548-7.545s-3.379-7.545-7.548-7.545h-87.411c-12.939 0-23.465 10.515-23.465 23.439v87.477c0 4.168 3.379 7.546 7.548 7.546z"/><path d="m79.659 155.406c4.169 0 7.548-3.377 7.548-7.545 0-4.167-3.379-7.545-7.548-7.545h-22.693c-4.169 0-7.548 3.377-7.548 7.545 0 4.167 3.379 7.545 7.548 7.545z"/><path d="m49.418 66.228c0 4.167 3.379 7.545 7.548 7.545h74.97c4.169 0 7.548-3.377 7.548-7.545s-3.379-7.545-7.548-7.545h-74.97c-4.169 0-7.548 3.378-7.548 7.545z"/><path d="m486.049 4.827h-87.44c-4.169 0-7.548 3.377-7.548 7.545s3.379 7.545 7.548 7.545h87.44c4.599 0 8.339 3.746 8.339 8.35v87.477c0 4.167 3.379 7.545 7.548 7.545s7.548-3.377 7.548-7.545v-87.478c.001-12.924-10.512-23.439-23.435-23.439z"/><path d="m113.391 496.911h-87.411c-4.614 0-8.369-3.746-8.369-8.35v-87.477c0-4.167-3.379-7.545-7.548-7.545s-7.548 3.377-7.548 7.545v87.477c0 12.924 10.526 23.439 23.465 23.439h87.411c4.169 0 7.548-3.377 7.548-7.545 0-4.167-3.379-7.544-7.548-7.544z"/><path d="m501.937 393.539c-4.169 0-7.548 3.377-7.548 7.545v87.477c0 4.604-3.741 8.35-8.339 8.35h-87.44c-4.169 0-7.548 3.377-7.548 7.545 0 4.167 3.379 7.545 7.548 7.545h87.44c12.922 0 23.436-10.515 23.436-23.439v-87.477c-.001-4.169-3.38-7.546-7.549-7.546z"/><path d="m469.824 457.89c0-4.167-3.379-7.545-7.548-7.545h-74.97c-4.169 0-7.548 3.377-7.548 7.545s3.379 7.545 7.548 7.545h74.97c4.169 0 7.548-3.378 7.548-7.545z"/><path d="m478.047 306.156c-14.721 0-27.104 10.195-30.489 23.901h-108.222v-72.98l66.789 8 17.092 3.78c2.839.623 5.568.914 8.179.914 15.981 0 27.434-10.908 31.033-23.398 4.439-15.406-2.294-36.12-27.568-45.192l-17.997-6.455-19.328-7.292c-3.896-1.471-8.255.495-9.727 4.394-1.472 3.898.496 8.251 4.396 9.722l13.816 5.212-5.199 42.482-61.486-7.365v-9.259c0-4.167-3.379-7.545-7.548-7.545s-7.548 3.377-7.548 7.545v97.435h-129.382v-97.435c0-4.167-3.379-7.545-7.548-7.545s-7.548 3.377-7.548 7.545v9.259l-61.486 7.365-3.25-26.549-1.96-16.009 56.45-22.107 8.628 14.426c1.414 2.364 3.918 3.674 6.486 3.674 1.318 0 2.653-.345 3.867-1.07 3.578-2.138 4.744-6.77 2.606-10.347l-6.191-10.351c1.443-.029 3.082-.03 5.066-.029l32.22.001v3.704c0 22.688 17.091 41.145 38.097 41.145 20.991 0 38.068-18.458 38.068-41.145v-3.704l30.76-.001c9.702.007 11.459-.01 19.973 3.494.041.017.082.032.123.049l9.784 3.827c.904.354 1.834.521 2.749.521 3.016 0 5.866-1.82 7.031-4.797 1.52-3.88-.396-8.257-4.278-9.775l-9.721-3.803c-11.237-4.618-15.47-4.607-25.674-4.605l-27.563.001c17.462-14.572 29.788-35.985 29.788-54.923v-49.903c0-24.566-18.513-46.743-47.164-56.498-25.142-8.561-50.095-4.576-63.403 9.805-13.633 2.322-32.942 13.068-32.286 55.394.007.386.012 41.202.012 41.202 0 18.931 12.328 40.343 29.803 54.923l-28.307-.001c-5.77.004-9.555.004-13.661.769l-37.913-63.39c-1.363-2.278-3.823-3.673-6.479-3.673h-74.97c-4.169 0-7.548 3.377-7.548 7.545 0 4.167 3.379 7.545 7.548 7.545h70.687l33.999 56.845-77.419 29.749c-25.272 9.071-32.005 29.784-27.566 45.191 3.599 12.49 15.048 23.396 31.037 23.396 2.612 0 5.348-.291 8.187-.914l17.08-3.778 66.789-8v72.98h-115.32c-3.388-13.706-15.782-23.901-30.517-23.901-17.319 0-31.409 14.107-31.409 31.445 0 17.322 14.09 31.415 31.409 31.415 14.733 0 27.125-10.181 30.516-23.87h115.322v38.034c0 4.167 3.379 7.545 7.548 7.545s7.548-3.377 7.548-7.545v-38.034h57.157v99.941h-57.151l.023-26.225c.004-4.166-3.373-7.547-7.542-7.55-.002 0-.004 0-.006 0-4.165 0-7.544 3.373-7.548 7.539l-.029 33.776v.003s0 .002 0 .003v16.07c0 22.671 18.453 41.116 41.134 41.116h5.081c13.857 0 26.126-6.892 33.583-17.419 7.452 10.527 19.713 17.419 33.56 17.419h5.111c22.665 0 41.105-18.445 41.105-41.116v-16.07-44.153l45.505 15.725c.793.275 1.627.415 2.466.415h74.97c4.169 0 7.548-3.377 7.548-7.545 0-4.167-3.379-7.545-7.548-7.545h-73.702l-49.239-17.014v-47.368h108.224c3.387 13.689 15.768 23.87 30.487 23.87 17.335 0 31.438-14.093 31.438-31.415 0-17.341-14.103-31.448-31.438-31.448zm-57.468-94.066 9.182 3.294c17.317 6.215 20.606 18.329 18.161 26.814-2.243 7.786-9.743 14.494-21.456 11.925l-10.742-2.375zm-137.315-27.502c0 14.367-10.305 26.056-22.971 26.056-12.683 0-23.001-11.689-23.001-26.056v-6.818c1.328.593 2.664 1.156 4.014 1.658 6.833 2.509 12.746 3.677 18.607 3.677 5.895 0 11.812-1.17 18.635-3.687 1.524-.566 3.033-1.204 4.529-1.884.057.085.126.162.186.245v6.809zm-57.968-155.695c2.101-.185 4.029-1.24 5.316-2.91 10.045-13.026 31.693-13.018 48.689-7.229 17.039 5.801 36.935 20.338 36.935 42.214v22.812h-4.192c-8.832 0-14.539-5.354-21.765-12.132-8.795-8.25-19.74-18.517-38.69-18.517h-13.814c-18.102 0-19.546 15.334-20.321 23.571-.993 10.545-1.825 11.753-8.096 11.753h-5.769v-17.845c0-.298-.006-.693-.013-1.175-.273-17.598 3.274-38.916 21.72-40.542zm-21.706 81.98v-7.327h5.769c20.731 0 22.289-16.541 23.125-25.427.933-9.896 1.598-9.896 5.292-9.896h13.814c12.975 0 20.104 6.687 28.359 14.431 8.105 7.602 17.29 16.218 32.096 16.218h4.192v12.003c0 20.479-20.07 45.901-42.933 54.395-5.08 1.874-9.335 2.748-13.39 2.748-4.031 0-8.289-.874-13.372-2.741-22.882-8.512-42.952-33.934-42.952-54.404zm-110.947 143.248c-11.714 2.569-19.224-4.137-21.468-11.923-2.444-8.485.845-20.598 18.161-26.814l9.182-3.294 4.854 39.657zm-58.719 99.807c-8.995 0-16.312-7.324-16.312-16.326 0-9.019 7.317-16.356 16.312-16.356 9.011 0 16.342 7.337 16.342 16.356-.001 9.002-7.332 16.326-16.342 16.326zm192.053 140.8h-5.081c-14.357 0-26.038-11.675-26.038-26.027v-8.525h57.157v8.525c0 14.352-11.681 26.027-26.038 26.027zm98.262-26.027c0 14.351-11.667 26.027-26.008 26.027h-5.111c-14.342 0-26.009-11.675-26.009-26.027v-8.525h57.128zm-23.188-73.452 23.188 8.013v41.825h-57.128v-99.941h57.128v42.151l-18.256-6.309c-3.937-1.363-8.238.728-9.599 4.665-1.363 3.939.727 8.235 4.667 9.596zm176.996-41.321c-8.995 0-16.312-7.324-16.312-16.326 0-9.019 7.317-16.356 16.312-16.356 9.011 0 16.342 7.337 16.342 16.356 0 9.002-7.331 16.326-16.342 16.326z"/></g></svg>